<svg xmlns="http://www.w3.org/2000/svg" xmlns:xlink="http://www.w3.org/1999/xlink" version="1.1" width="25" height="24" viewBox="0 0 1080 1080" xml:space="preserve">
<desc>Created with Fabric.js 5.2.4</desc>
<defs>
</defs>
<g transform="matrix(1 0 0 1 540 540)" id="ddb944b8-f98c-4c98-bc75-3d36682a34e5">
<rect style="stroke: none; stroke-width: 1; stroke-dasharray: none; stroke-linecap: butt; stroke-dashoffset: 0; stroke-linejoin: miter; stroke-miterlimit: 4; fill: rgb(255,255,255); fill-rule: nonzero; opacity: 1; visibility: hidden;" vector-effect="non-scaling-stroke" x="-540" y="-540" rx="0" ry="0" width="1080" height="1080"/>
</g>
<g transform="matrix(1 0 0 1 540 540)" id="5f434e7c-e12c-4aa6-bdc6-352bfee666bc">
</g>
<g transform="matrix(43.2 0 0 43.2 540 540)">
<path style="stroke: rgb(53,53,116); stroke-width: 2; stroke-dasharray: none; stroke-linecap: round; stroke-dashoffset: 0; stroke-linejoin: round; stroke-miterlimit: 4; fill: none; fill-rule: nonzero; opacity: 1;" transform=" translate(-12.5, -12)" d="M 21.5 12 L 12.5 18 L 3.5 12 M 21.5 16 L 12.5 22 L 3.5 16 M 21.5 8 L 12.5 14 L 3.5 8 L 12.5 2 L 21.5 8 Z" stroke-linecap="round"/>
</g>
<g transform="matrix(6.4 0 0 6.4 714.85 363.4)" id="6b399aa5-3631-4491-88b0-bc00254c8419">
<polygon style="stroke: rgb(0,0,0); stroke-width: 0; stroke-dasharray: none; stroke-linecap: butt; stroke-dashoffset: 0; stroke-linejoin: miter; stroke-miterlimit: 4; fill: rgb(53,53,116); fill-rule: nonzero; opacity: 1;" vector-effect="non-scaling-stroke" points="-30.68,-37.41 30.68,0 -30.68,37.41 "/>
</g>
<g transform="matrix(-6.61 0 0 -6.61 340.23 360.97)">
<polygon style="stroke: rgb(0,0,0); stroke-width: 0; stroke-dasharray: none; stroke-linecap: butt; stroke-dashoffset: 0; stroke-linejoin: miter; stroke-miterlimit: 4; fill: rgb(53,53,116); fill-rule: nonzero; opacity: 1;" vector-effect="non-scaling-stroke" points="-30.68,-37.41 30.68,0 -30.68,37.41 "/>
</g>
<g transform="matrix(NaN NaN NaN NaN 0 0)">
<g style="">
</g>
</g>
<g transform="matrix(NaN NaN NaN NaN 0 0)">
<g style="">
</g>
</g>
<g transform="matrix(NaN NaN NaN NaN 0 0)">
<g style="">
</g>
</g>
</svg>